<?xml version="1.0" encoding="UTF-8" standalone="no"?>
<!-- Created with Inkscape (http://www.inkscape.org/) -->

<svg
   xmlns:dc="http://purl.org/dc/elements/1.1/"
   xmlns:cc="http://creativecommons.org/ns#"
   xmlns:rdf="http://www.w3.org/1999/02/22-rdf-syntax-ns#"
   xmlns:svg="http://www.w3.org/2000/svg"
   xmlns="http://www.w3.org/2000/svg"
   xmlns:sodipodi="http://sodipodi.sourceforge.net/DTD/sodipodi-0.dtd"
   xmlns:inkscape="http://www.inkscape.org/namespaces/inkscape"
   sodipodi:docname="Logo One piece.svg"
   height="100"
   width="250"
   inkscape:version="0.47 r22583"
   version="1.1"
   id="svg2">
  <metadata
     id="metadata8">
    <rdf:RDF>
      <cc:Work
         rdf:about="">
        <dc:format>image/svg+xml</dc:format>
        <dc:type
           rdf:resource="http://purl.org/dc/dcmitype/StillImage" />
        <dc:title></dc:title>
      </cc:Work>
    </rdf:RDF>
  </metadata>
  <defs
     id="defs6" />
  <sodipodi:namedview
     inkscape:zoom="2.8284271"
     inkscape:cx="184.50898"
     inkscape:cy="79.298497"
     inkscape:current-layer="svg2" />
  <g
     id="g4204">
    <g
       id="g4219">
      <path
         style="fill:#000000;fill-opacity:1;stroke:none"
         d="m 62.5,7.5 c -5.522848,0 -10,4.477152 -10,10 l 0,34 c 0,5.522848 4.477152,10 10,10 5.522848,0 10,-4.477152 10,-10 l 0,-34 c 0,-5.522848 -4.477152,-10 -10,-10 z m 0,5 c 1.656854,0 3,1.343146 3,3 l 0,38 c 0,1.656854 -1.343146,3 -3,3 -1.656854,0 -3,-1.343146 -3,-3 l 0,-38 c 0,-1.656854 1.343146,-3 3,-3 z"
         id="path3614" />
      <path
         style="fill:#000000;fill-opacity:1;stroke:none"
         d="m 82.5,5.4 -7,3.9 0,52.2 7,0 0,-46 c 0,-1.656854 1.343146,-3 3,-3 1.656854,0 3,1.343146 3,3 l 0,46 7,0 0,-44 c 0,-5.522848 -4.477152,-10 -10,-10 -1.045676,0 -2.052587,0.139794 -3,0.4375 L 82.5,5.4 z"
         id="path3638" />
      <path
         style="fill:#000000;fill-opacity:1;stroke:none"
         d="m 108.5,7.5 c -5.52285,0 -10,4.477152 -10,10 l 0,13 -4.40625,0 4.40625,5 0,16 c 0,5.522848 4.47715,10 10,10 5.52285,0 10,-4.477152 10,-10 l 0,-5.3125 -7,-2.125 0,9.4375 c 0,1.656854 -1.34315,3 -3,3 -1.65685,0 -3,-1.343146 -3,-3 l 0,-18 9,0 0,-5 -9,0 0,-15 c 0,-1.656854 1.34315,-3 3,-3 1.65685,0 3,1.343146 3,3 l 0,9.25 7,-2.125 0,-14.03125 -2.5625,2.25 C 114.1064,8.797293 111.46219,7.5 108.5,7.5 z"
         id="path3640" />
    </g>
    <g
       id="g4229">
      <path
         style="fill:#000000;fill-opacity:1;stroke:none"
         d="m 138.5,5.40625 -7,3.90625 0,26.1875 -4.40625,0 4.40625,5 0,21 7,0 0,-19.46875 c 0.95096,0.298664 1.95276,0.46875 3,0.46875 5.52285,0 10,-4.477152 10,-10 l 0,-15 c 0,-5.522848 -4.47715,-10 -10,-10 -1.04568,0 -2.05259,0.139794 -3,0.4375 l 0,-2.53125 z m 3,7.09375 c 1.65685,0 3,1.343146 3,3 l 0,19 c 0,1.656854 -1.34315,3 -3,3 -1.65685,0 -3,-1.343146 -3,-3 l 0,-19 c 0,-1.656854 1.34315,-3 3,-3 z"
         id="path3681" />
      <path
         style="fill:#000000;fill-opacity:1;stroke:none"
         d="m 153.5,7.5 0,10 7,0 0,-10 -7,0 z m 0,10.90625 0,43.09375 7,0 0,-39.1875 -7,-3.90625 z"
         id="path3686" />
      <path
         id="path3677"
         d="m 175.5,7.5 c -5.52285,0 -10,4.477152 -10,10 l 0,13 -4.40625,0 4.40625,5 0,16 c 0,5.522848 4.47715,10 10,10 5.52285,0 10,-4.477152 10,-10 l 0,-5.3125 -7,-2.125 0,9.4375 c 0,1.656854 -1.34315,3 -3,3 -1.65685,0 -3,-1.343146 -3,-3 l 0,-18 9,0 0,-5 -9,0 0,-15 c 0,-1.656854 1.34315,-3 3,-3 1.65685,0 3,1.343146 3,3 l 0,9.25 7,-2.125 0,-14.03125 -2.5625,2.25 C 181.1064,8.797293 178.46219,7.5 175.5,7.5 z"
         style="fill:#000000;fill-opacity:1;stroke:none" />
      <path
         id="path3668"
         d="m 198.5,7.5 c -5.52285,0 -10,4.477152 -10,10 l 0,34 c 0,5.522848 4.47715,10 10,10 5.52285,0 10,-4.477152 10,-10 l 0,-5.3125 -7,-2.125 0,9.4375 c 0,1.656854 -1.34315,3 -3,3 -1.65685,0 -3,-1.343146 -3,-3 l 0,-38 c 0,-1.656854 1.34315,-3 3,-3 1.65685,0 3,1.343146 3,3 l 0,9.25 7,-2.125 0,-14.03125 -2.5625,2.25 C 204.1064,8.797293 201.46219,7.5 198.5,7.5 z"
         style="fill:#000000;fill-opacity:1;stroke:none" />
      <path
         style="fill:#000000;fill-opacity:1;stroke:none"
         d="m 221.5,7.5 c -5.52285,0 -10,4.477152 -10,10 l 0,13 -4.40625,0 4.40625,5 0,16 c 0,5.522848 4.47715,10 10,10 5.52285,0 10,-4.477152 10,-10 l 0,-5.3125 -7,-2.125 0,9.4375 c 0,1.656854 -1.34315,3 -3,3 -1.65685,0 -3,-1.343146 -3,-3 l 0,-18 9,0 0,-5 -9,0 0,-15 c 0,-1.656854 1.34315,-3 3,-3 1.65685,0 3,1.343146 3,3 l 0,9.25 7,-2.125 0,-14.03125 -2.5625,2.25 C 227.1064,8.797293 224.46219,7.5 221.5,7.5 z"
         id="path3679" />
    </g>
  </g>
  <path
     style="fill:#000000;fill-opacity:1;stroke:none"
     d="M 32.5,7 C 29.533921,7 28.810069,9 26,9 25.159817,9 24.552668,9.05267 24,8.5 c 0.645515,5.386603 0.534629,10.2367 0,16 0.552668,0.552668 1.159817,0.5 2,0.5 2.810069,0 3.533921,-2 6.5,-2 2.966079,0 3.449672,2 6,2 2.550328,0 3.744831,-2 5.5,-2 1.755169,0 2.009666,0.234641 3,0.5 l 0,-16 C 46.009666,7.234641 45.755169,7 44,7 42.244831,7 41.050328,9 38.5,9 35.949672,9 35.466079,7 32.5,7 z"
     id="path3715" />
  <g
     id="g4119">
    <path
       style="fill:#ffffff;fill-opacity:1;stroke:#000000;stroke-opacity:1"
       d="m 19.953865,25.728122 c -0.959123,-0.993201 -2.541795,-1.020827 -3.534995,-0.0617 -0.646948,0.624749 -0.860256,1.534208 -0.681983,2.352844 -0.814987,-0.211716 -1.725155,-0.02831 -2.375211,0.599454 -0.993201,0.959122 -1.020827,2.541794 -0.0617,3.534994 0.959124,0.993202 2.541794,1.020827 3.534996,0.0617 0.03142,-0.03035 0.03872,-0.07783 0.06821,-0.109311 l 4.211366,4.360997 c -0.03259,0.02828 25.969484,27.009253 25.938064,27.039595 -0.993201,0.959124 -1.020827,2.541795 -0.0617,3.534996 0.959123,0.993201 2.541795,1.020827 3.534995,0.0617 0.650057,-0.627751 0.887181,-1.508125 0.704038,-2.330004 0.811916,0.206735 1.706209,0.0025 2.353156,-0.622294 0.993201,-0.959122 1.020827,-2.541794 0.0617,-3.534994 -0.959124,-0.993202 -2.541794,-1.020827 -3.534996,-0.0617 -0.03127,0.0302 -26.08865,-26.897415 -26.117898,-26.865931 L 19.780535,29.32747 c 0.0324,-0.02823 0.08036,-0.03415 0.111625,-0.06435 0.993201,-0.959124 1.020827,-2.541795 0.0617,-3.534996 z"
       id="path3751" />
    <path
       id="path3767"
       d="m 49.990912,25.728122 c 0.959123,-0.993201 2.541795,-1.020827 3.534995,-0.0617 0.646948,0.624749 0.860256,1.534208 0.681983,2.352844 0.814987,-0.211716 1.725155,-0.02831 2.375211,0.599454 0.993201,0.959122 1.020827,2.541794 0.0617,3.534994 -0.959124,0.993202 -2.541794,1.020827 -3.534996,0.0617 -0.03142,-0.03035 -0.03872,-0.07783 -0.06821,-0.109311 L 48.830229,36.4671 c 0.03259,0.02828 -25.969484,27.009253 -25.938064,27.039595 0.993201,0.959124 1.020827,2.541795 0.0617,3.534996 -0.959123,0.993201 -2.541795,1.020827 -3.534995,0.0617 -0.650057,-0.627751 -0.887181,-1.508125 -0.704038,-2.330004 -0.811916,0.206735 -1.706209,0.0025 -2.353156,-0.622294 -0.993201,-0.959122 -1.020827,-2.541794 -0.0617,-3.534994 0.959124,-0.993202 2.541794,-1.020827 3.534996,-0.0617 0.03127,0.0302 26.08865,-26.897415 26.117898,-26.865931 l 4.211372,-4.360998 c -0.0324,-0.02823 -0.08036,-0.03415 -0.111625,-0.06435 -0.993201,-0.959124 -1.020827,-2.541795 -0.0617,-3.534996 z"
       style="fill:#ffffff;fill-opacity:1;stroke:#000000;stroke-opacity:1" />
    <g
       id="g4152">
      <path
         id="path3854"
         d="m 28.34375,68.625 c 0.765122,3.330101 3.593944,5.875 7.15625,5.875 3.562306,0 6.391128,-2.544899 7.15625,-5.875 -0.466665,0.173113 -0.816923,0.454009 -1.3125,0.59375 C 39.549175,69.724778 37.571068,70 35.5,70 33.428932,70 31.450825,69.724778 29.65625,69.21875 29.160673,69.079009 28.810415,68.798113 28.34375,68.625 z"
         style="fill:#ffffff;fill-opacity:1;stroke:#000000;stroke-width:1;stroke-miterlimit:4;stroke-opacity:1;stroke-dasharray:none" />
      <path
         style="fill:#ffffff;fill-opacity:1;stroke:#000000;stroke-width:1;stroke-miterlimit:4;stroke-opacity:1;stroke-dasharray:none"
         d="M 28.15625,65.53125 28.125,65.6875 C 28.048933,66.115969 28,66.549685 28,67 c 0,0.57983 0.219212,1.082965 0.34375,1.625 0.466665,0.173113 0.816923,0.454009 1.3125,0.59375 C 31.450825,69.724778 33.428932,70 35.5,70 c 2.071068,0 4.049175,-0.275222 5.84375,-0.78125 0.495577,-0.139741 0.845835,-0.420637 1.3125,-0.59375 C 42.780788,68.082965 43,67.57983 43,67 43,66.549685 42.95107,66.115969 42.875,65.6875 l -0.03125,-0.15625 c -0.529388,0.20363 -0.932357,0.527438 -1.5,0.6875 C 39.549175,66.724778 37.571068,67 35.5,67 c -2.071068,0 -4.049175,-0.275222 -5.84375,-0.78125 -0.567643,-0.160062 -0.970612,-0.48387 -1.5,-0.6875 z"
         id="path3860" />
      <path
         style="fill:#ffffff;fill-opacity:1;stroke:#000000;stroke-width:1;stroke-miterlimit:4;stroke-opacity:1;stroke-dasharray:none"
         d="m 28.15625,65.53125 c 0.529388,0.20363 0.932357,0.527438 1.5,0.6875 C 31.450825,66.724778 33.428932,67 35.5,67 c 2.071068,0 4.049175,-0.275222 5.84375,-0.78125 0.567643,-0.160062 0.970612,-0.48387 1.5,-0.6875 l -0.8125,-4.625 -13.0625,-0.03125 -0.8125,4.65625 z"
         id="path3781" />
      <g
         id="g4170">
        <path
           style="fill:none;stroke:#000000;stroke-width:1px;stroke-linecap:butt;stroke-linejoin:miter;stroke-opacity:1"
           d="m 29.300698,69.088242 0.862946,-8.210383"
           id="path3880" />
        <path
           id="path3878"
           d="M 31.689036,69.678232 32.30406,60.882979"
           style="fill:none;stroke:#000000;stroke-width:1px;stroke-linecap:butt;stroke-linejoin:miter;stroke-opacity:1" />
        <path
           style="fill:none;stroke:#000000;stroke-width:1px;stroke-linecap:butt;stroke-linejoin:miter;stroke-opacity:1"
           d="m 33.928318,69.946573 0.316346,-9.058951"
           id="path3876" />
        <path
           style="fill:none;stroke:#000000;stroke-width:1px;stroke-linecap:butt;stroke-linejoin:miter;stroke-opacity:1"
           d="M 37.071682,69.946573 36.755546,60.893629"
           id="path3868" />
        <path
           style="fill:none;stroke:#000000;stroke-width:1px;stroke-linecap:butt;stroke-linejoin:miter;stroke-opacity:1"
           d="M 39.310964,69.678232 38.697009,60.898273"
           id="path3870" />
        <path
           id="path3872"
           d="M 41.699302,69.088242 40.83904,60.903398"
           style="fill:none;stroke:#000000;stroke-width:1px;stroke-linecap:butt;stroke-linejoin:miter;stroke-opacity:1" />
      </g>
    </g>
    <g
       id="g4182">
      <path
         style="fill:#ffffff;fill-opacity:1;stroke:#000000;stroke-width:1;stroke-miterlimit:4;stroke-opacity:1;stroke-dasharray:none"
         d="M 50.8125,43.03125 C 48.30915,42.742341 45.714881,42.498267 43,42.34375 40.187184,42.183659 37.264224,42.125 34.28125,42.125 c -2.982974,0 -5.874684,0.05866 -8.6875,0.21875 -1.839112,0.104673 -3.566604,0.301333 -5.3125,0.46875 C 19.819432,44.307206 19.5,45.853628 19.5,47.5 c 0,8.836556 7.163444,16 16,16 8.836556,0 16,-7.163444 16,-16 0,-1.563169 -0.269563,-3.040687 -0.6875,-4.46875 z"
         id="path3725" />
      <path
         sodipodi:type="arc"
         style="fill:#1e2326;fill-opacity:1;stroke:#000000;stroke-width:0.76796746;stroke-miterlimit:4;stroke-opacity:1;stroke-dasharray:none"
         id="path3731"
         sodipodi:cx="26.905638"
         sodipodi:cy="58.139313"
         sodipodi:rx="3.2048266"
         sodipodi:ry="3.7265427"
         d="m 30.110464,58.139313 a 3.2048266,3.7265427 0 1 1 -6.409653,0 3.2048266,3.7265427 0 1 1 6.409653,0 z"
         transform="matrix(1.4041321,0,0,1.2075536,-9.27907,-18.706336)" />
      <path
         transform="matrix(1.4041321,0,0,1.2075536,5.2209303,-18.706336)"
         d="m 30.110464,58.139313 a 3.2048266,3.7265427 0 1 1 -6.409653,0 3.2048266,3.7265427 0 1 1 6.409653,0 z"
         sodipodi:ry="3.7265427"
         sodipodi:rx="3.2048266"
         sodipodi:cy="58.139313"
         sodipodi:cx="26.905638"
         id="path3733"
         style="fill:#1e2326;fill-opacity:1;stroke:#000000;stroke-width:0.76796746;stroke-miterlimit:4;stroke-opacity:1;stroke-dasharray:none"
         sodipodi:type="arc" />
      <path
         sodipodi:type="arc"
         style="fill:#1e2326;fill-opacity:1;stroke:#000000;stroke-width:2.30240226;stroke-miterlimit:4;stroke-opacity:1;stroke-dasharray:none"
         id="path3735"
         sodipodi:cx="26.905638"
         sodipodi:cy="58.139313"
         sodipodi:rx="3.2048266"
         sodipodi:ry="3.7265427"
         d="m 30.110464,58.139313 a 3.2048266,3.7265427 0 1 1 -6.409653,0 3.2048266,3.7265427 0 1 1 6.409653,0 z"
         transform="matrix(0.46812024,0,0,0.40258341,22.904926,36.094077)" />
    </g>
    <g
       id="g4190">
      <path
         style="fill:#d71617;fill-opacity:1;stroke:#000000;stroke-width:1;stroke-miterlimit:4;stroke-opacity:1;stroke-dasharray:none"
         d="m 35.5,31.5 c -7.190184,0 -13.201856,4.784683 -15.21875,11.3125 1.745896,-0.167417 3.473388,-0.364077 5.3125,-0.46875 2.812816,-0.160091 5.704526,-0.21875 8.6875,-0.21875 2.982974,0 5.905934,0.05866 8.71875,0.21875 2.714881,0.154517 5.30915,0.398591 7.8125,0.6875 C 48.867848,36.386506 42.773387,31.5 35.5,31.5 z"
         id="path3720" />
      <path
         style="fill:#d71617;fill-opacity:1;stroke:#000000;stroke-width:0.99999315;stroke-miterlimit:4;stroke-opacity:1;stroke-dasharray:none"
         d="m 35.5,39.5 c -10.573082,0 -20.754095,1.685484 -30.28125,4.8125 4.4554907,1.42182 9.04622,2.526955 13.75,3.3125 5.113181,-2.045332 10.68773,-3.1875 16.53125,-3.1875 5.84352,0 11.418069,1.142168 16.53125,3.1875 4.70378,-0.785545 9.294509,-1.89068 13.75,-3.3125 C 56.254095,41.185484 46.073082,39.5 35.5,39.5 z"
         id="path3742" />
    </g>
  </g>
  <g
     id="g4089">
    <path
       style="fill:#a69659"
       d="m 29.664101,71.27368 c -5.731783,0.0823 -6.370152,0.35567 -9.407028,3.02208 -1.980453,1.73886 -3.600823,3.78995 -3.600823,4.55797 0,1.5056 -1.421506,1.68057 -4.334225,0.53349 -1.624302,-0.63967 -1.372776,-1.19783 2.197742,-4.87701 5.641121,-5.81279 14.11135,-9.72779 15.652241,-7.23457 0.301561,0.48793 1.238165,0.69506 2.016267,0.32384 0.781059,-0.37263 0.663984,3.62842 -2.524174,3.6742 z m 12.652041,-0.3501 c -1.842386,1.53744 -4.846796,-2.81674 -3.963706,-3.46858 0.918632,-0.67808 8.303814,-0.9067 8.303814,-0.13567 0,0.38227 1.803386,0.71993 4.007526,0.75035 2.968439,0.041 6.144664,1.34146 12.25,5.01573 20.235472,12.17796 41.108634,17.55192 67.742474,17.44082 21.73524,-0.0907 30.6283,-2.81361 50,-15.30945 22.0578,-14.22852 39.45326,-20.03264 47.31574,-15.78723 1.20134,0.64867 3.56946,1.08978 5.26248,0.98024 1.69302,-0.10954 5.18421,0.73242 7.7582,1.87101 4.06813,1.79953 4.54747,2.31778 3.6664,3.96407 -1.35353,2.52909 -3.29078,3.64138 -3.78096,2.17086 -0.21789,-0.65368 -1.29953,-1.67197 -2.40364,-2.26288 -1.77726,-0.95116 -1.92981,-0.82966 -1.33023,1.05945 0.84154,2.65146 -1.0108,5.03784 -3.91043,5.03784 -2.94669,0 -4.57756,-1.8389 -4.57756,-5.16146 0,-2.3797 -0.55805,-2.91172 -4.03668,-3.84842 -7.81397,-2.10408 -22.73609,3.55627 -41.01025,15.55625 -19.54137,12.83212 -31.83473,16.53842 -54.16091,16.32887 -7.31069,-0.0686 -15.54216,-0.46105 -18.29216,-0.87209 -2.75,-0.41104 -7.10546,-1.03819 -9.67881,-1.39367 C 90.573677,91.35336 72.691822,84.03575 61.15625,76.35938 l -6,-3.99271 -0.506431,2.69174 c -0.873663,4.64361 -7.993569,3.84596 -7.993569,-0.89553 0,-1.8896 -3.187609,-4.20104 -4.340108,-3.2393 z M 31.65625,68.75014 c -0.541743,0.004 -1,0.81648 -1,1.05902 0,0.24254 0.583936,0.73335 1,0.44098 0.979925,-0.6886 0.491965,-1.50337 0,-1.5 z"
       id="path3988" />
    <path
       style="fill:#a58e34"
       d="m 30.613014,68.27328 c 3.276842,-2.59598 2.686754,3.01403 -0.965074,3.02226 -4.052137,0.0443 -6.115684,0.46104 -7.598219,1.43244 -1.347481,0.88291 -2.956781,1.29205 -3.576225,0.90921 -0.67304,-0.41596 -0.849248,-0.24785 -0.437877,0.41776 0.378612,0.61261 0.110641,2.14464 -0.595492,3.40451 -0.706132,1.25987 -1.343278,2.42508 -1.415878,2.58935 -0.0726,0.16426 -1.33649,-0.004 -2.808643,-0.37313 l -2.676641,-0.67179 2.204002,-2.34606 c 1.212202,-1.29033 2.65812,-2.06539 3.213151,-1.72236 0.592987,0.36648 0.697941,0.12014 0.254503,-0.59736 -0.910322,-1.47293 2.373559,-4.23395 4.247567,-3.57127 0.716066,0.25322 1.026487,0.0147 0.689825,-0.53003 -0.582854,-0.94308 2.89448,-2.73796 6.849972,-3.53572 1.294132,-0.26101 1.672486,0.0696 1.272505,1.11194 -0.455384,1.18671 0.07138,1.46727 1.342524,0.46025 z m 12.971847,2.01507 c -1.479485,0.7918 -4.06451,-0.31308 -2.928611,-1.07506 1.135899,-0.76198 0.848074,-0.78262 -1.25,-0.55091 -0.685454,0.0757 -0.909532,-0.24446 -0.909532,-0.75802 0,-0.83928 2.191138,-1.17656 4.606806,-0.70688 0.521001,0.10129 3.440792,0.41449 6.488425,0.69598 4.295297,0.39673 7.161689,1.52184 12.748777,5.00412 14.276134,8.89793 29.722621,14.14526 49.815524,16.92285 20.95789,2.89717 40.71072,0.61116 54.5,-6.30732 9.48825,-4.76054 9.40485,-4.72705 8.62288,-3.4618 -0.36053,0.58335 -0.25763,1.30654 0.22867,1.60708 0.4863,0.30055 0.83114,-0.45586 0.76631,-1.6809 -0.0816,-1.54114 0.41797,-2.18511 1.62138,-2.09026 0.95658,0.0754 1.51628,-0.22366 1.24377,-0.66459 -0.27251,-0.44092 1.09504,-1.78467 3.039,-2.9861 2.84525,-1.75847 3.82145,-1.94624 5.00623,-0.96297 0.90112,0.74787 1.47176,0.81857 1.47176,0.18235 0,-0.57151 -0.5598,-1.22571 -1.24399,-1.45378 -1.69991,-0.56664 12.49503,-8.35426 19.05937,-10.45634 4.61792,-1.47878 5.44349,-1.51144 6.2917,-0.24889 0.77747,1.15726 0.91691,1.0459 0.68462,-0.54677 -0.25956,-1.77963 0.35959,-2.03357 5.61913,-2.3047 3.27208,-0.16868 7.28991,0.26861 9,0.97952 1.69904,0.70633 3.92543,1.1444 4.94752,0.97349 1.02209,-0.1709 2.9743,-0.0307 4.33825,0.31168 2.17421,0.54569 2.31494,0.83305 1.14165,2.33121 -1.18397,1.5118 -1.15052,1.56221 0.29011,0.4373 1.18766,-0.92737 2.34641,-0.99849 4.28144,-0.26279 2.57568,0.97927 2.60504,1.082 1.00663,3.52149 -1.66068,2.53452 -3.41643,3.33005 -3.41643,1.54798 0,-0.53065 -0.96823,-1.483 -2.15163,-2.11633 -1.85497,-0.99275 -2.06228,-0.91868 -1.50359,0.53726 0.95306,2.48362 -1.07831,5.54389 -3.67996,5.54389 -3.02949,0 -4.66482,-1.80888 -4.66482,-5.15986 0,-2.35143 -0.58939,-2.93644 -3.9827,-3.9531 -7.58918,-2.27378 -22.03515,3.26424 -41.99731,16.10011 -12.12785,7.79832 -16.97849,10.12096 -27.48136,13.15889 -10.24967,2.9647 -32.99973,3.39993 -49.03863,0.93816 -6.599999,-1.01301 -14.925,-2.85995 -18.5,-4.10431 -7.817193,-2.72093 -21.798451,-9.63765 -28,-13.85197 l -4.5,-3.05801 -0.506431,2.71504 c -0.937934,5.0284 -7.993569,3.78614 -7.993569,-1.40739 0,-1.30766 -0.476558,-2.37756 -1.059017,-2.37756 -0.582459,0 -0.753155,-0.4949 -0.379323,-1.09977 0.434807,-0.70353 -0.153564,-0.65382 -1.633049,0.13798 z m 81.071389,22.96179 c 0,-0.55 -0.45,-1 -1,-1 -0.55,0 -1,0.45 -1,1 0,0.55 0.45,1 1,1 0.55,0 1,-0.45 1,-1 z m 16,-0.5 c 0,-0.825 -0.17686,-1.5 -0.39301,-1.5 -0.21616,0 -0.65203,0.675 -0.96862,1.5 -0.31658,0.825 -0.13972,1.5 0.39301,1.5 0.53274,0 0.96862,-0.675 0.96862,-1.5 z m 10,-1.5 c 0,-0.55 -0.47656,-1 -1.05902,-1 -0.58246,0 -0.7809,0.45 -0.44098,1 0.33992,0.55 0.81648,1 1.05902,1 0.24254,0 0.44098,-0.45 0.44098,-1 z m -50,-1.55902 c 0,-0.24254 -0.45,-0.44098 -0.999999,-0.44098 -0.55,0 -1,0.47656 -1,1.05902 0,0.58246 0.45,0.7809 1,0.44098 0.549999,-0.33992 0.999999,-0.81648 0.999999,-1.05902 z m -3.999999,-0.44098 c 0,-0.55 -0.450001,-1 -1.000001,-1 -0.55,0 -1,0.45 -1,1 0,0.55 0.45,1 1,1 0.55,0 1.000001,-0.45 1.000001,-1 z M 92.65625,88.19112 c 0,-0.58246 -0.45,-0.7809 -1,-0.44098 -0.55,0.33992 -1,0.81648 -1,1.05902 0,0.24254 0.45,0.44098 1,0.44098 0.55,0 1,-0.47656 1,-1.05902 z m -3,-0.94098 c 0,-0.55 -0.45,-1 -1,-1 -0.55,0 -1,0.45 -1,1 0,0.55 0.45,1 1,1 0.55,0 1,-0.45 1,-1 z m -3,-1.55902 c 0,-0.24254 -0.45,-0.44098 -1,-0.44098 -0.55,0 -1,0.47656 -1,1.05902 0,0.58246 0.45,0.7809 1,0.44098 0.55,-0.33992 1,-0.81648 1,-1.05902 z m -3,-1 c 0,-0.24254 -0.45,-0.44098 -1,-0.44098 -0.55,0 -1,0.47656 -1,1.05902 0,0.58246 0.45,0.7809 1,0.44098 0.55,-0.33992 1,-0.81648 1,-1.05902 z m -4,-1 c 0,-0.85746 -0.45734,-1.27636 -1.016312,-0.9309 -0.558971,0.34546 -0.757414,1.04702 -0.440983,1.55902 0.85724,1.38704 1.457295,1.12841 1.457295,-0.62812 z m -3,-1.5 c 0,-0.58246 -0.45,-0.7809 -1,-0.44098 -0.55,0.33992 -1,0.81648 -1,1.05902 0,0.24254 0.45,0.44098 1,0.44098 0.55,0 1,-0.47656 1,-1.05902 z m -3,-0.94098 c 0,-0.55 -0.476558,-1 -1.059017,-1 -0.582459,0 -0.780902,0.45 -0.440983,1 0.339919,0.55 0.816476,1 1.059017,1 0.242541,0 0.440983,-0.45 0.440983,-1 z m -3,-2.05902 c 0,-0.58246 -0.45,-0.7809 -1,-0.44098 -0.55,0.33992 -1,0.81648 -1,1.05902 0,0.24254 0.45,0.44098 1,0.44098 0.55,0 1,-0.47656 1,-1.05902 z m -5.5,-2.94098 c -0.339919,-0.55 -0.816476,-1 -1.059017,-1 -0.242541,0 -0.440983,0.45 -0.440983,1 0,0.55 0.476558,1 1.059017,1 0.582459,0 0.780902,-0.45 0.440983,-1 z m -7.5,-5 c 0,-0.55 -0.476558,-1 -1.059017,-1 -0.582459,0 -0.780902,0.45 -0.440983,1 0.339919,0.55 0.816476,1 1.059017,1 0.242541,0 0.440983,-0.45 0.440983,-1 z m -26,-2.5 c -0.330486,-0.0692 -1,0.81648 -1,1.05902 0,0.24254 0.559289,0.70569 1,0.44098 0.946113,-0.56827 0.234339,-1.45092 0,-1.5 z m 165.60417,-2.22917 c -0.3323,-0.33229 -0.56864,0.25834 -0.52522,1.3125 0.048,1.16495 0.28494,1.4019 0.60416,0.60417 0.28887,-0.72188 0.25335,-1.58438 -0.0789,-1.91667 l -4e-5,0 z m 39,-5 c -0.3323,-0.33229 -0.56864,0.25834 -0.52522,1.3125 0.048,1.16495 0.28494,1.4019 0.60416,0.60417 0.28887,-0.72188 0.25335,-1.58438 -0.0789,-1.91667 l -4e-5,0 z"
       id="path3986" />
    <path
       style="fill:#887430"
       d="m 30.257865,71.28399 c -4.467391,-2.2e-4 -6.654594,0.42606 -8.208144,1.44399 -1.347481,0.88291 -2.956781,1.29205 -3.576225,0.90921 -0.67304,-0.41596 -0.849248,-0.24785 -0.437877,0.41776 0.378612,0.61261 0.110641,2.14464 -0.595492,3.40451 -0.706132,1.25987 -1.343278,2.42508 -1.415878,2.58935 -0.0726,0.16426 -1.33649,-0.004 -2.808643,-0.37313 l -2.676641,-0.67179 2.204002,-2.34606 c 1.212202,-1.29033 2.65812,-2.06539 3.213151,-1.72236 0.592987,0.36648 0.697941,0.12014 0.254503,-0.59736 -0.838464,-1.35666 1.148666,-3.1482 6.232871,-5.61938 4.853632,-2.35912 7.52049,-2.71291 6.826998,-0.9057 -0.455384,1.18671 -0.186881,1.27876 1.342524,0.46025 3.063723,-2.99282 1.981346,3.86094 -0.355149,3.01071 z m 12.177979,-0.39763 c -1.81893,1.12416 -2.915493,-0.91109 -1.779594,-1.67307 1.135899,-0.76198 0.788906,-1.09723 -1.25,-0.55091 -0.564606,0.15129 -0.921181,-0.11633 -0.921181,-0.62989 0,-0.83928 2.202787,-1.30469 4.618455,-0.83501 0.521001,0.10129 3.440792,0.41449 6.488425,0.69598 4.295297,0.39673 7.161689,1.52184 12.748777,5.00412 13.852601,8.63395 30.354671,14.36703 47.593514,16.53474 7.09869,0.89264 9.64528,1.57538 9.29368,2.49166 -0.26638,0.69416 -0.054,1.52808 0.472,1.85315 0.52598,0.32507 0.95633,-0.11051 0.95633,-0.96797 0,-1.27741 1.39991,-1.56009 7.75,-1.56492 10.09623,-0.008 25.47071,-2.35646 32.4034,-4.95031 3.02334,-1.13117 11.76314,-5.95442 19.42179,-10.71833 21.32487,-13.26471 31.6558,-17.57845 32.76617,-13.6817 0.34942,1.22625 0.4661,1.00777 0.34379,-0.64376 -0.17588,-2.37487 0.11069,-2.51525 5.72568,-2.8047 3.25096,-0.16759 7.29074,0.26687 8.9773,0.96547 1.68656,0.6986 4.20598,1.15065 5.5987,1.00456 1.39272,-0.14609 4.66278,0.67683 7.2668,1.82871 4.69732,2.07785 4.72191,2.11365 3.12546,4.55015 -1.94098,2.9623 -1.87875,2.95615 -4.39947,0.43542 -1.64912,-1.64911 -2.273,-1.78693 -3.39504,-0.75 -0.75606,0.69872 -1.14064,1.65593 -0.85462,2.12715 0.28602,0.47122 0.9069,0.24622 1.37973,-0.5 1.21828,-1.9227 1.09984,-0.11679 -0.14487,2.20898 -1.15713,2.16212 -4.9277,2.57138 -6.76482,0.73426 -0.66,-0.66 -1.2,-2.44194 -1.2,-3.95986 0,-2.35143 -0.58939,-2.93644 -3.9827,-3.9531 -7.58918,-2.27378 -22.03515,3.26424 -41.99731,16.10011 -12.12785,7.79832 -16.97849,10.12096 -27.48136,13.15889 -10.24967,2.9647 -32.99973,3.39993 -49.03863,0.93816 -6.599999,-1.01301 -14.925,-2.85995 -18.5,-4.10431 -7.817193,-2.72093 -21.798451,-9.63765 -28,-13.85197 l -4.5,-3.05801 -0.506431,2.71504 c -0.924472,4.95623 -7.993569,3.80621 -7.993569,-1.30041 0,-2.35174 -2.401476,-3.97248 -4.220406,-2.84832 z m 82.220406,22.36378 c 0,-0.55 -0.45,-1 -1,-1 -0.55,0 -1,0.45 -1,1 0,0.55 0.45,1 1,1 0.55,0 1,-0.45 1,-1 z m 13,0 c 0,-0.55 -0.45,-1 -1,-1 -0.55,0 -1,0.45 -1,1 0,0.55 0.45,1 1,1 0.55,0 1,-0.45 1,-1 z m 3,-0.55902 c 0,-0.85746 -0.45,-1.2809 -1,-0.94098 -0.55,0.33992 -1,1.04148 -1,1.55902 0,0.51754 0.45,0.94098 1,0.94098 0.55,0 1,-0.70156 1,-1.55902 z m -26.5,-0.44098 c 0.33992,-0.55 -0.0835,-1 -0.94098,-1 -0.85746,0 -1.55902,0.45 -1.55902,1 0,0.55 0.42344,1 0.94098,1 0.51754,0 1.2191,-0.45 1.55902,-1 z m 3.5,0 c 0,-0.55 -0.45,-1 -1,-1 -0.55,0 -1,0.45 -1,1 0,0.55 0.45,1 1,1 0.55,0 1,-0.45 1,-1 z m 26,0 c 0,-0.55 -0.45,-1 -1,-1 -0.55,0 -1,0.45 -1,1 0,0.55 0.45,1 1,1 0.55,0 1,-0.45 1,-1 z m 7,-1.05902 c 0,-0.51754 -0.45,-0.94098 -1,-0.94098 -0.55,0 -1,0.70156 -1,1.55902 0,0.85746 0.45,1.2809 1,0.94098 0.55,-0.33992 1,-1.04148 1,-1.55902 z m -43.5,0.059 c 0.33992,-0.55 -0.0835,-1 -0.94098,-1 -0.85746,0 -1.55902,0.45 -1.55902,1 0,0.55 0.42344,1 0.94098,1 0.51754,0 1.2191,-0.45 1.55902,-1 z m 3.5,0 c 0,-0.55 -0.45,-1 -1,-1 -0.55,0 -1,0.45 -1,1 0,0.55 0.45,1 1,1 0.55,0 1,-0.45 1,-1 z m 43,-0.55902 c 0,-0.85746 -0.45734,-1.27636 -1.01631,-0.9309 -0.55897,0.34546 -0.75742,1.04702 -0.44098,1.55902 0.85723,1.38704 1.45729,1.12841 1.45729,-0.62812 z m -50,-0.31598 c 0,-0.48125 -1.13321,-0.875 -2.51824,-0.875 -1.385029,0 -2.761589,0.39375 -3.059009,0.875 -0.29743,0.48125 0.83577,0.875 2.518229,0.875 1.68246,0 3.05902,-0.39375 3.05902,-0.875 z m 53,-0.125 c 0,-0.55 -0.45,-1 -1,-1 -0.55,0 -1,0.45 -1,1 0,0.55 0.45,1 1,1 0.55,0 1,-0.45 1,-1 z m -59.999999,-1 c 0,-0.55 -0.450001,-1 -1.000001,-1 -0.55,0 -1,0.45 -1,1 0,0.55 0.45,1 1,1 0.55,0 1.000001,-0.45 1.000001,-1 z m 63.999999,0 c 0,-0.55 -0.45,-1 -1,-1 -0.55,0 -1,0.45 -1,1 0,0.55 0.45,1 1,1 0.55,0 1,-0.45 1,-1 z m -67.5,-1 c 0.339919,-0.55 -0.08352,-1 -0.940983,-1 -0.857459,0 -1.559017,0.45 -1.559017,1 0,0.55 0.423442,1 0.940983,1 0.517541,0 1.219098,-0.45 1.559017,-1 z m 70.5,-0.55902 c 0,-0.85746 -0.45,-1.2809 -1,-0.94098 -0.55,0.33992 -1,1.04148 -1,1.55902 0,0.51754 0.45,0.94098 1,0.94098 0.55,0 1,-0.70156 1,-1.55902 z m -74,-0.44098 c 0,-0.55 -0.45,-1 -1,-1 -0.55,0 -1,0.45 -1,1 0,0.55 0.45,1 1,1 0.55,0 1,-0.45 1,-1 z m -3,-1.55902 c 0,-0.24254 -0.45,-0.44098 -1,-0.44098 -0.55,0 -1,0.47656 -1,1.05902 0,0.58246 0.45,0.7809 1,0.44098 0.55,-0.33992 1,-0.81648 1,-1.05902 z m 80.5,0.55902 c -0.33992,-0.55 -1.04148,-1 -1.55902,-1 -0.51754,0 -0.94098,0.45 -0.94098,1 0,0.55 0.70156,1 1.55902,1 0.85746,0 1.2809,-0.45 0.94098,-1 z m -83.5,-1.559 c 0,-0.24254 -0.701558,-0.44098 -1.559017,-0.44098 -0.857459,0 -1.276365,0.45734 -0.930902,1.01631 0.570806,0.92358 2.489919,0.48015 2.489919,-0.57533 z m 86.74986,-1.02445 c -0.95295,-0.95296 -2.86349,0.5906 -2.1533,1.7397 0.42212,0.683 0.98146,0.66575 1.69964,-0.0524 0.58876,-0.58876 0.79291,-1.34803 0.45366,-1.68727 l 0,-3e-5 z m -90.74986,0.0245 c 0,-0.85746 -0.45734,-1.27636 -1.016312,-0.9309 -0.558971,0.34546 -0.757414,1.04702 -0.440983,1.55902 0.85724,1.38704 1.457295,1.12841 1.457295,-0.62812 z m 94,-1 c 0,-0.85746 -0.45,-1.2809 -1,-0.94098 -0.55,0.33992 -1,1.04148 -1,1.55902 0,0.51754 0.45,0.94098 1,0.94098 0.55,0 1,-0.70156 1,-1.55902 z m -97,-0.44098 c 0,-0.55 -0.45,-1 -1,-1 -0.55,0 -1,0.45 -1,1 0,0.55 0.45,1 1,1 0.55,0 1,-0.45 1,-1 z m -3,-1 c 0,-0.55 -0.476558,-1 -1.059017,-1 -0.582459,0 -0.780902,0.45 -0.440983,1 0.339919,0.55 0.816476,1 1.059017,1 0.242541,0 0.440983,-0.45 0.440983,-1 z m 103,-0.25 c 0,-1.17109 -1.45675,-0.87974 -1.875,0.375 -0.20625,0.61875 0.13125,0.95625 0.75,0.75 0.61875,-0.20625 1.125,-0.7125 1.125,-1.125 z m -106,-1.80907 c 0,-0.58246 -0.45,-0.7809 -1,-0.44098 -0.55,0.33992 -1,0.81648 -1,1.05902 0,0.24254 0.45,0.44098 1,0.44098 0.55,0 1,-0.47656 1,-1.05902 z m 109.44721,-1.02639 c -0.32197,-0.52097 -1.01165,-0.68378 -1.53262,-0.3618 -0.52097,0.32197 -0.68378,1.01165 -0.3618,1.53262 0.32197,0.52097 1.01165,0.68378 1.53262,0.3618 0.52097,-0.32197 0.68378,-1.01165 0.3618,-1.53262 z M 68.65625,77.69112 c 0,-0.24254 -0.45,-0.44098 -1,-0.44098 -0.55,0 -1,0.47656 -1,1.05902 0,0.58246 0.45,0.7809 1,0.44098 0.55,-0.33992 1,-0.81648 1,-1.05902 z m 114.44721,-1.52639 c -0.32197,-0.52097 -1.01165,-0.68378 -1.53262,-0.3618 -0.52097,0.32197 -0.68378,1.01165 -0.3618,1.53262 0.32197,0.52097 1.01165,0.68378 1.53262,0.3618 0.52097,-0.32197 0.68378,-1.01165 0.3618,-1.53262 z m -117.94721,0.0854 c -0.339919,-0.55 -0.816476,-1 -1.059017,-1 -0.242541,0 -0.440983,0.45 -0.440983,1 0,0.55 0.476558,1 1.059017,1 0.582459,0 0.780902,-0.45 0.440983,-1 z m 120.10417,-2.72917 c -0.3323,-0.33229 -0.56864,0.25834 -0.52522,1.3125 0.048,1.16495 0.28494,1.4019 0.60416,0.60417 0.28887,-0.72188 0.25335,-1.58438 -0.0789,-1.91667 l -4e-5,0 z M 60.15625,73.25014 c -0.339919,-0.55 -0.816476,-1 -1.059017,-1 -0.242541,0 -0.440983,0.45 -0.440983,1 0,0.55 0.476558,1 1.059017,1 0.582459,0 0.780902,-0.45 0.440983,-1 z m 128.5,-0.55902 c 0,-0.85746 -0.45734,-1.27636 -1.01631,-0.9309 -0.55897,0.34546 -0.75742,1.04702 -0.44098,1.55902 0.85723,1.38704 1.45729,1.12841 1.45729,-0.62812 z M 21.149171,71.26159 c 0.350339,-0.56686 -0.05106,-0.7345 -0.940983,-0.39301 -1.732417,0.66479 -2.049387,1.38156 -0.610955,1.38156 0.517541,0 1.215913,-0.44485 1.551938,-0.98855 z m 36.507079,-0.0114 c 0,-0.55 -0.476558,-1 -1.059017,-1 -0.582459,0 -0.780902,0.45 -0.440983,1 0.339919,0.55 0.816476,1 1.059017,1 0.242541,0 0.440983,-0.45 0.440983,-1 z m 134.5,0 c -0.33992,-0.55 -0.81648,-1 -1.05902,-1 -0.24254,0 -0.44098,0.45 -0.44098,1 0,0.55 0.47656,1 1.05902,1 0.58246,0 0.7809,-0.45 0.44098,-1 z m 2.95729,-2.0691 c -0.85723,-1.38704 -1.45729,-1.12841 -1.45729,0.62812 0,0.85746 0.45734,1.27636 1.01631,0.9309 0.55897,-0.34547 0.75742,-1.04702 0.44098,-1.55902 z m 37.54271,1.01008 c 0,-0.58246 -0.45,-0.7809 -1,-0.44098 -0.55,0.33992 -1,0.81648 -1,1.05902 0,0.24254 0.45,0.44098 1,0.44098 0.55,0 1,-0.47656 1,-1.05902 z m -201,-1.44098 c -0.486939,-0.054 -1,0.81648 -1,1.05902 0,0.24254 0.584237,0.72186 1,0.44098 0.794021,-0.53643 0.435326,-1.45172 0,-1.5 z m 165.60417,-2.22917 c -0.3323,-0.33229 -0.56864,0.25834 -0.52522,1.3125 0.048,1.16495 0.28494,1.4019 0.60416,0.60417 0.28887,-0.72188 0.25335,-1.58438 -0.0789,-1.91667 l -4e-5,0 z m 34.39583,1.17015 c 0,-0.24254 -0.45,-0.44098 -1,-0.44098 -0.55,0 -1,0.47656 -1,1.05902 0,0.58246 0.45,0.7809 1,0.44098 0.55,-0.33992 1,-0.81648 1,-1.05902 z m -31.39583,-2.17015 c -0.3323,-0.33229 -0.56864,0.25834 -0.52522,1.3125 0.048,1.16495 0.28494,1.4019 0.60416,0.60417 0.28887,-0.72188 0.25335,-1.58438 -0.0789,-1.91667 l -4e-5,0 z m 42.14569,-0.8543 c -0.95295,-0.95296 -2.86349,0.5906 -2.1533,1.7397 0.42212,0.683 0.98146,0.66575 1.69964,-0.0524 0.58876,-0.58876 0.79291,-1.34803 0.45366,-1.68727 l 0,-3e-5 z m -38.74986,0.58347 c 0,-0.55 -0.47656,-1 -1.05902,-1 -0.58246,0 -0.7809,0.45 -0.44098,1 0.33992,0.55 0.81648,1 1.05902,1 0.24254,0 0.44098,-0.45 0.44098,-1 z m 27.5,0 c -0.33992,-0.55 -0.81648,-1 -1.05902,-1 -0.24254,0 -0.44098,0.45 -0.44098,1 0,0.55 0.47656,1 1.05902,1 0.58246,0 0.7809,-0.45 0.44098,-1 z m -25,-1 c -0.33992,-0.55 -0.81648,-1 -1.05902,-1 -0.24254,0 -0.44098,0.45 -0.44098,1 0,0.55 0.47656,1 1.05902,1 0.58246,0 0.7809,-0.45 0.44098,-1 z m 28.10417,-2.72917 c -0.3323,-0.33229 -0.56864,0.25834 -0.52522,1.3125 0.048,1.16495 0.28494,1.4019 0.60416,0.60417 0.28887,-0.72188 0.25335,-1.58438 -0.0789,-1.91667 l -4e-5,0 z m 2,0 c -0.3323,-0.33229 -0.56864,0.25834 -0.52522,1.3125 0.048,1.16495 0.28494,1.4019 0.60416,0.60417 0.28887,-0.72188 0.25335,-1.58438 -0.0789,-1.91667 l -4e-5,0 z m 3.39583,1.67015 c 0,-0.58246 -0.45,-0.7809 -1,-0.44098 -0.55,0.33992 -1,0.81648 -1,1.05902 0,0.24254 0.45,0.44098 1,0.44098 0.55,0 1,-0.47656 1,-1.05902 z"
       id="path3984" />
    <path
       style="fill:#6e6850"
       d="m 29.65625,67.48417 c 3.474284,0.57795 1.474103,6.1851 -2.5,2.55013 -0.757037,-0.69243 -0.470704,-0.89229 0.75,-0.46274 0.9625,0.33868 1.75,0.17991 1.75,-0.35283 0,-0.53273 -0.675,-0.96861 -1.5,-0.96861 -0.825,0 -1.5,-0.375 -1.5,-0.83333 0,-0.45834 0.675,-0.83334 1.5,-0.83334 0.825,0 1.5,0.40533 1.5,0.90072 z m 12.745135,3.42346 c -1.848908,1.14268 -2.881034,-0.93238 -1.745135,-1.69436 1.135899,-0.76198 0.84444,-0.81345 -1.25,-0.55091 -0.603915,0.0757 -1.154151,-0.10018 -1.154151,-0.55134 0,-0.45115 0.459169,-0.93552 1.404151,-1.07421 2.230729,-0.3274 3.020244,-0.036 3.078947,1.1365 0.04749,0.94841 0.27284,1.10001 0.565472,0.38039 0.333752,-0.82073 2.261449,-1.03247 6.138983,-0.67433 6.598845,0.6095 7.323081,0.92969 6.565935,2.90277 -0.309823,0.80739 -0.10267,1.46798 0.460341,1.46798 0.56301,0 1.173655,-0.41697 1.356989,-0.9266 0.183333,-0.50963 3.258333,0.8377 6.833333,2.99408 6.738429,4.06449 21.08436,10.1743 26.75,11.39258 2.25247,0.48435 3.25,1.27021 3.25,2.56038 0,2.36374 1.614782,3.42581 2.339041,1.53842 0.30173,-0.7863 0.0114,-1.64819 -0.645218,-1.91531 -0.656603,-0.26711 -0.375999,-0.52118 0.623568,-0.5646 1.35119,-0.0587 1.66068,0.41478 1.20649,1.8458 -0.46259,1.4575 -0.0541,2.03133 1.68262,2.36382 1.750749,0.33516 1.583559,0.44384 -0.7065,0.45925 -1.65,0.0111 -3.806209,-0.18922 -4.791575,-0.44515 -1.24388,-0.32308 -1.605411,-1.05188 -1.182613,-2.384 0.43485,-1.37009 0.130229,-1.91867 -1.065414,-1.91867 -1.077492,0 -1.469184,0.53472 -1.098773,1.5 0.766477,1.9974 0.307061,1.93037 -7.675664,-1.12 -5.639192,-2.15486 -6.769181,-2.95377 -6.364832,-4.5 0.321233,-1.2284 -0.0329,-1.88 -1.021738,-1.88 -0.914376,0 -1.292123,0.57656 -0.954386,1.45669 0.463327,1.20741 0.138301,1.26501 -1.899326,0.33661 -1.352071,-0.61605 -2.342969,-1.78737 -2.201995,-2.60295 0.140973,-0.81557 -0.377892,-1.70345 -1.153035,-1.97306 -0.9975,-0.34694 -1.214755,0.0169 -0.743448,1.24512 0.534129,1.39192 -0.275357,1.1895 -4.09065,-1.02292 -2.616104,-1.51702 -5.870789,-3.6188 -7.232633,-4.67061 -1.565384,-1.20902 -2.612595,-1.50285 -2.847246,-0.7989 -0.261472,0.78442 -0.819817,0.74115 -1.889258,-0.14641 -1.28073,-1.06291 -1.451685,-0.95217 -1.093364,0.70826 0.233601,1.08249 1.002691,1.84161 1.709089,1.68692 0.706398,-0.15469 1.094425,0.29531 0.862282,1 -0.575066,1.74566 -4.546478,2.20785 -6.320464,0.73557 -0.794727,-0.65957 -1.444958,-2.22096 -1.444958,-3.46978 0,-2.37114 -2.405957,-3.96971 -4.254865,-2.82703 z m 75.254865,22.34251 c 0,-1.1 -0.45,-2 -1,-2 -0.55,0 -1,0.675 -1,1.5 0,0.98926 -0.9896,1.5 -2.90638,1.5 -2.41405,0 -2.81778,-0.33879 -2.38337,-2 0.28766,-1.1 0.90641,-2 1.375,-2 0.46859,0 0.59296,0.675 0.27638,1.5 -0.37368,0.97378 0.0257,1.5 1.13837,1.5 1.11269,0 1.51205,-0.52622 1.13837,-1.5 -0.42939,-1.11898 0.15469,-1.5 2.2994,-1.5 2.38266,0 2.78543,0.34249 2.35198,2 -0.35617,1.36198 -0.0307,2 1.02029,2 0.84882,0 1.74911,-0.7875 2.00063,-1.75 0.34415,-1.31691 0.48604,-1.19317 0.57333,0.5 0.091,1.76427 -0.4237,2.25 -2.384,2.25 -1.83333,0 -2.5,-0.53333 -2.5,-2 z m 6.70073,0.0364 c 0.29289,-1.12002 0.91593,-2.03641 1.38452,-2.03641 0.46859,0 0.59296,0.675 0.27638,1.5 -0.31659,0.825 -0.0775,1.5 0.53138,1.5 0.60885,0 1.10699,-0.675 1.10699,-1.5 0,-0.825 0.43588,-1.5 0.96862,-1.5 0.53273,0 0.7361,0.6059 0.45193,1.34645 -0.36157,0.94224 0.42305,1.37318 2.6136,1.43546 2.3303,0.0663 2.98952,-0.27785 2.57946,-1.34646 -0.30296,-0.7895 -0.11496,-1.43545 0.41777,-1.43545 0.53274,0 0.96862,0.675 0.96862,1.5 0,2.19751 1.68028,1.8306 2.28975,-0.5 0.41734,-1.59593 1.29955,-1.97249 4.36663,-1.86382 2.3689,0.0839 2.96996,0.30382 1.56657,0.5731 -1.45084,0.27838 -2.17653,1.04536 -2,2.11382 0.23966,1.45061 -0.95986,1.71555 -8.88885,1.96331 -8.79397,0.27479 -9.1443,0.20378 -8.63337,-1.75 z m 16.29927,-0.53641 c 0,-0.825 -0.45,-1.5 -1,-1.5 -0.55,0 -1,0.675 -1,1.5 0,0.825 0.45,1.5 1,1.5 0.55,0 1,-0.675 1,-1.5 z m 3.39864,0.664 c 0.59778,-0.96723 4.23471,-0.86399 5.24766,0.14896 0.37787,0.37787 -0.76452,0.68704 -2.53865,0.68704 -1.77413,0 -2.99318,-0.3762 -2.70901,-0.836 z m -40.89864,-2.664 c 0,-1.375 0.4146,-2.3618 0.92133,-2.19289 1.31539,0.43846 1.46185,4.69289 0.16155,4.69289 -0.59558,0 -1.08288,-1.125 -1.08288,-2.5 z m 3.92857,0.5 c 0,-1.1 0.53644,-2 1.1921,-2 0.69976,0 0.97609,0.82599 0.66908,2 -0.28766,1.1 -0.8241,2 -1.1921,2 -0.36799,0 -0.66908,-0.9 -0.66908,-2 z m 43.295,0.0509 c -0.29498,-1.128 -0.12846,-2.05091 0.37005,-2.05091 0.49851,0 0.90638,0.675 0.90638,1.5 0,0.825 0.50248,1.5 1.11663,1.5 0.6243,0 0.88603,-0.88181 0.59362,-2 -0.33574,-1.28388 -0.0307,-2 0.85198,-2 0.81138,0 1.13906,0.61486 0.7994,1.5 -0.31659,0.825 -0.0775,1.5 0.53138,1.5 0.60885,0 1.10699,-0.9 1.10699,-2 0,-1.1 0.43588,-2 0.96862,-2 0.53273,0 0.70959,0.675 0.39301,1.5 -0.33536,0.87394 -0.009,1.51269 0.78138,1.53041 2.07969,0.0466 -1.00263,1.60343 -4.76306,2.40574 -2.60786,0.5564 -3.2081,0.32899 -3.65638,-1.38524 z M 90.253605,87.0926 c 0.490153,-0.79309 0.03647,-0.97999 -1.440983,-0.59362 -1.186005,0.31014 -2.156372,0.10788 -2.156372,-0.44947 0,-0.55735 -0.637759,-0.76864 -1.417241,-0.46952 -0.779483,0.29911 -1.676305,-0.13126 -1.992937,-0.95639 -0.316633,-0.82514 -1.028875,-1.22017 -1.582759,-0.87785 -1.808467,1.1177 -1.065917,2.19617 2.242937,3.25762 4.436513,1.4232 5.513558,1.43834 6.347355,0.0892 l 0,3e-5 z M 79.760051,82.95392 c -1.283486,-1.28349 -2.585056,-0.2915 -1.634838,1.24598 0.368078,0.59556 1.127349,0.79971 1.687268,0.45366 0.683003,-0.42212 0.665748,-0.98146 -0.05243,-1.69964 z M 74.65625,80.6911 c 0,-0.24254 -0.701558,-0.44098 -1.559017,-0.44098 -0.857459,0 -1.276365,0.45734 -0.930902,1.01631 0.570806,0.92358 2.489919,0.48015 2.489919,-0.57533 z m -6,-3 c 0,-0.24254 -0.45,-0.44098 -1,-0.44098 -0.55,0 -1,0.47656 -1,1.05902 0,0.58246 0.45,0.7809 1,0.44098 0.55,-0.33992 1,-0.81648 1,-1.05902 z M 52.183242,76.29379 c -0.325073,-0.52598 -1.325451,-0.6745 -2.223062,-0.33006 -1.090929,0.41863 -1.392291,0.23838 -0.908958,-0.54367 0.397684,-0.64347 0.246504,-1.16994 -0.335955,-1.16994 -1.187433,0 -1.408858,1.31683 -0.39235,2.33333 1.04238,1.04238 4.522197,0.78127 3.860325,-0.28966 z m 13.473008,-0.0437 c 0,-0.55 -0.45,-1 -1,-1 -0.55,0 -1,0.45 -1,1 0,0.55 0.45,1 1,1 0.55,0 1,-0.45 1,-1 z m -4.428571,-2.57143 c -0.916667,-0.91667 -1.949888,-1.38344 -2.296047,-1.03729 -0.346159,0.34616 0.237062,1.26294 1.296047,2.03729 2.489833,1.82061 3.155222,1.15522 1,-1 z m -10.14443,-1.95004 c 1.05985,-0.80183 1.597882,-1.78698 1.195627,-2.18924 -0.402255,-0.40225 -1.150013,-0.0694 -1.661686,0.73967 -0.814223,1.28747 -0.934136,1.28386 -0.96094,-0.029 -0.02722,-1.33333 -0.138334,-1.33333 -1,0 -2.037492,3.15279 -0.790314,3.91258 2.426999,1.47853 l 0,4e-5 z M 47.65625,69.85713 c 0,-0.21616 -0.675,-0.65203 -1.5,-0.96862 -0.825,-0.31658 -1.5,-0.13972 -1.5,0.39301 0,0.53274 0.675,0.96862 1.5,0.96862 0.825,0 1.5,-0.17686 1.5,-0.39301 z m 99,20.95203 c 0,-0.24254 0.45,-0.7191 1,-1.05902 0.55,-0.33992 1,-0.14148 1,0.44098 0,0.58246 -0.45,1.05902 -1,1.05902 -0.55,0 -1,-0.19844 -1,-0.44098 z m 13.71025,-2.55902 c -0.28766,-1.1 -0.11514,-2 0.38337,-2 0.49851,0 0.90638,0.675 0.90638,1.5 0,0.825 0.50248,1.5 1.11663,1.5 0.61415,0 0.88888,-0.87094 0.61051,-1.93542 -0.27837,-1.06448 0.0375,-2.14402 0.70192,-2.39898 0.7235,-0.27764 1.18054,0.39837 1.13949,1.68541 -0.12072,3.78444 -3.95917,5.08727 -4.8583,1.64899 z m 6.54111,-2.25 c -0.13689,-1.66609 0.84458,-2.84166 3.78189,-4.52986 3.23358,-1.85848 3.96675,-1.9971 3.96675,-0.75 0,0.84142 0.675,1.52986 1.5,1.52986 1.75585,0 1.94332,-1.15668 0.43236,-2.66764 -0.94562,-0.94562 3.03881,-3.96997 12.70474,-9.64341 0.64551,-0.37889 1.07782,-0.0489 1,0.76325 -0.0754,0.78688 0.30553,1.34453 0.84651,1.23924 0.54099,-0.10529 0.85344,-0.95982 0.69434,-1.89895 -0.20465,-1.208 1.47389,-2.59755 5.73787,-4.75 6.95623,-3.51149 7.08418,-3.53935 7.08418,-1.54249 0,0.825 0.48032,1.5 1.06739,1.5 0.60231,0 0.79837,-0.8476 0.44997,-1.9453 -0.51159,-1.61187 -0.007,-2.05981 2.94366,-2.61336 1.95859,-0.36744 3.80766,-1.06705 4.10904,-1.5547 0.80687,-1.30555 12.20471,-1.07925 14.74568,0.29277 1.20134,0.64867 3.56946,1.08978 5.26248,0.98024 1.69302,-0.10954 5.17786,0.72961 7.7441,1.86478 4.62659,2.04656 4.65233,2.08462 3.05677,4.51976 -1.95269,2.98018 -1.86016,2.97474 -4.56659,0.26831 -1.40789,-1.4079 -2.32857,-1.76429 -2.58333,-1 -0.21771,0.65312 -0.93757,1.1875 -1.5997,1.1875 -0.66212,0 -1.2797,1.00683 -1.3724,2.23739 -0.1288,1.70984 0.044,1.89351 0.73282,0.77896 0.49575,-0.80214 1.19589,-1.1639 1.55587,-0.80392 1.13979,1.13978 -0.57729,2.78757 -2.90478,2.78757 -3.01227,0 -4.64098,-1.81821 -4.64098,-5.18095 0,-2.13235 -0.58307,-2.92729 -2.5,-3.40841 -1.56443,-0.39264 -2.5,-1.33534 -2.5,-2.51905 0,-1.22492 -0.70487,-1.89159 -2,-1.89159 -1.1,0 -2,0.49814 -2,1.10699 0,0.60884 0.675,0.84797 1.5,0.53138 0.825,-0.31658 1.5,-0.13972 1.5,0.39301 0,1.7218 -3.83835,1.02603 -4.31067,-0.78138 -0.38596,-1.47691 -0.47701,-1.4379 -0.58346,0.25 -0.0992,1.57352 -1.61665,2.45326 -7.116,4.12559 -6.8453,2.08163 -6.98987,2.08558 -6.98987,0.19098 0,-1.0855 -0.45675,-1.65231 -1.04068,-1.29143 -0.57237,0.35375 -0.76705,1.5053 -0.43261,2.55902 0.33444,1.05371 0.22934,1.91584 -0.23354,1.91584 -1.09188,0 -13.39549,7.1411 -24.69576,14.3336 -4.89643,3.11652 -9.18578,5.6664 -9.5319,5.6664 -0.34611,0 -0.71248,-1.0125 -0.81415,-2.25 z m 3.74864,-1.33333 c 0,-1.76593 -2.15276,-1.45839 -2.77083,0.39583 -0.21771,0.65312 0.31666,1.1875 1.1875,1.1875 0.87083,0 1.58333,-0.7125 1.58333,-1.58333 z m 3.25,-1.83334 c 0.1375,-0.50416 -0.3125,-1.10416 -1,-1.33333 -0.6875,-0.22917 -1.25,0.33333 -1.25,1.25 0,1.69335 1.79279,1.75975 2.25,0.0833 l 0,3e-5 z m 6.75,-4.05195 c 0,-0.89459 0.58629,-1.24363 1.5,-0.89301 0.9422,0.36156 1.5,-0.0103 1.5,-1 0,-0.98969 0.5578,-1.36155 1.5,-1 1.4773,0.5669 2.07923,-0.7258 0.89117,-1.91387 -0.74106,-0.74106 -8.39117,4.18969 -8.39117,5.40839 0,0.47691 0.675,0.86711 1.5,0.86711 0.825,0 1.5,-0.66088 1.5,-1.46862 z m 8.75,-5.78138 c -0.47189,-1.41567 -2.07998,-1.26005 -2.58333,0.25 -0.18334,0.55 0.41666,1 1.33333,1 0.91667,0 1.47917,-0.5625 1.25,-1.25 z m 7.5,-3.36599 c 1.95028,-0.68792 2.27303,-1.94272 0.74294,-2.88838 -0.55389,-0.34232 -1.26613,0.0527 -1.58276,0.87785 -0.31663,0.82513 -1.21346,1.2555 -1.99294,0.95639 -0.87852,-0.33712 -1.41724,0.0987 -1.41724,1.14647 0,0.99636 0.51319,1.4511 1.25,1.10764 0.6875,-0.32048 2.0375,-0.86047 3,-1.19997 z m 35.73469,0.86599 c -0.0335,-1.64154 -1.92414,-3.64067 -2.68032,-2.83414 -0.4424,0.47187 -0.23907,1.05978 0.45186,1.30645 0.69093,0.24668 1.00187,0.86008 0.69098,1.3631 -0.31088,0.50302 -0.0887,0.91459 0.49377,0.91459 0.58246,0 1.05213,-0.3375 1.04371,-0.75 z m -31.88089,-4.5462 c -1.28349,-1.28349 -2.58505,-0.2915 -1.63484,1.24598 0.36808,0.59556 1.12735,0.79971 1.68727,0.45366 0.683,-0.42212 0.66575,-0.98146 -0.0524,-1.69964 l -3e-5,0 z m 41.70189,-1.82389 c -1.59173,-0.98374 -3.2875,0.53149 -2.32953,2.08152 0.51852,0.83897 1.0829,0.81948 2.1602,-0.0746 1.16706,-0.96858 1.20088,-1.36939 0.16933,-2.00692 z m -10.07333,0.0356 c 0.41445,-1.58486 0.74789,-1.76464 1.39106,-0.75 0.64819,1.02255 0.84953,0.92542 0.86127,-0.41546 0.0169,-1.93165 -0.77832,-2.16678 -2.86281,-0.84649 -0.8028,0.50849 -1.0514,1.40152 -0.59549,2.13919 0.50955,0.82447 0.3798,1.01735 -0.37188,0.55279 -0.63498,-0.39244 -1.15451,-0.23697 -1.15451,0.34549 0,1.91914 2.17587,1.10248 2.73236,-1.02552 z m 6.25928,-1.94179 c -2.19935,-1.39048 -2.99347,-1.18334 -2.97633,0.77633 0.0131,1.49554 0.15626,1.53189 0.98469,0.25 0.8079,-1.25013 0.97193,-1.17517 0.98469,0.45 0.0122,1.553 0.2681,1.69721 1.25695,0.70836 0.98886,-0.98886 0.93796,-1.43364 -0.25,-2.18469 z m -29.99164,1.02633 c 0,-0.55 -0.47656,-1 -1.05902,-1 -0.58246,0 -0.7809,0.45 -0.44098,1 0.33992,0.55 0.81648,1 1.05902,1 0.24254,0 0.44098,-0.45 0.44098,-1 z m 5,-1.61919 c 0,-0.70124 -0.82497,-0.97784 -2,-0.67056 -1.1,0.28766 -2,0.89256 -2,1.34423 0,0.45167 0.9,0.75343 2,0.67057 1.1,-0.0829 2,-0.68777 2,-1.34424 z m 15.21228,0.25604 c 0.24991,0.47473 0.38876,0.44127 0.30855,-0.0743 -0.28072,-1.80466 -2.52068,-1.71153 -2.50552,0.10416 0.0118,1.41657 0.21165,1.52345 0.87895,0.47018 0.475,-0.74973 1.06811,-0.97473 1.31802,-0.5 l 0,-4e-5 z m -12.21228,-0.57783 c 0,-0.51754 -0.45,-1.2191 -1,-1.55902 -0.55,-0.33992 -1,0.0835 -1,0.94098 0,0.85746 0.45,1.55902 1,1.55902 0.55,0 1,-0.42344 1,-0.94098 z m 8.60417,-1.78819 c -0.3323,-0.33229 -0.56864,0.25834 -0.52522,1.3125 0.048,1.16495 0.28494,1.4019 0.60416,0.60417 0.28887,-0.72188 0.25335,-1.58437 -0.0789,-1.91667 l -4e-5,0 z M 12.480917,79.42985 c -1.467166,-0.59525 -1.337446,-1.05685 1.043996,-3.71493 2.94497,-3.28707 7.589147,-6.76334 10.381337,-7.77067 3.33833,-1.20436 1.877731,2.78229 -1.731468,4.72598 -1.914807,1.03119 -4.049657,3.15852 -4.744111,4.7274 -1.292499,2.91996 -2.022736,3.21977 -4.949754,2.03222 z m 5.217,-5.22138 c 0.985416,-0.98541 2.054166,-1.52916 2.375,-1.20833 0.320833,0.32083 0.583333,0.0887 0.583333,-0.51595 0,-0.6046 0.933912,-1.39569 2.075361,-1.75797 1.141448,-0.36228 1.854989,-0.87906 1.585646,-1.14841 -1.412654,-1.41265 -10.972399,6.35947 -9.918879,8.0641 0.3806,0.61582 0.796435,0.49254 1.065957,-0.31602 0.243053,-0.72916 1.248165,-2.132 2.233582,-3.11742 z"
       id="path3982" />
    <path
       style="fill:#65561b"
       d="m 121.3665,93.25014 c 0.28766,-1.1 0.69553,-2 0.90638,-2 0.21085,0 0.38337,0.9 0.38337,2 0,1.1 -0.40787,2 -0.90638,2 -0.49851,0 -0.67103,-0.9 -0.38337,-2 z m 3,0 c 0.28766,-1.1 0.90641,-2 1.375,-2 0.46859,0 0.59296,0.675 0.27638,1.5 -0.31659,0.825 -0.0775,1.5 0.53138,1.5 0.60885,0 1.10699,-0.675 1.10699,-1.5 0,-0.825 0.43588,-1.5 0.96862,-1.5 0.53273,0 0.7361,0.6059 0.45193,1.34645 -0.36157,0.94224 0.42305,1.37318 2.6136,1.43546 2.3303,0.0663 2.98952,-0.27785 2.57946,-1.34646 -0.30296,-0.7895 -0.11496,-1.43545 0.41777,-1.43545 0.53274,0 0.96862,0.675 0.96862,1.5 0,2.08589 1.77313,1.88595 2.21712,-0.25 0.29579,-1.423 0.47885,-1.32957 0.9797,0.5 0.60058,2.1939 0.42114,2.25 -7.19682,2.25 -7.32043,0 -7.7798,-0.12603 -7.28975,-2 z m -13.71025,-1 c 0,-1.1 0.43588,-2 0.96862,-2 0.53273,0 0.70959,0.675 0.39301,1.5 -0.37368,0.97378 0.0257,1.5 1.13837,1.5 1.11269,0 1.51205,-0.52622 1.13837,-1.5 -0.33966,-0.88514 -0.012,-1.5 0.7994,-1.5 0.88266,0 1.18772,0.71612 0.85198,2 -0.33846,1.29427 -1.36402,2 -2.90638,2 -1.7167,0 -2.38337,-0.55943 -2.38337,-2 z m 7.07895,0.58333 c -0.0434,-1.05416 0.19292,-1.64479 0.52522,-1.3125 0.33229,0.3323 0.36781,1.19479 0.0789,1.91667 -0.31922,0.79773 -0.55618,0.56078 -0.60416,-0.60417 z m 23.10794,-0.33333 c 0.1999,-1.04881 1.33115,-1.81563 2.82333,-1.9138 2.35413,-0.15489 2.36303,-0.13693 0.16333,0.32956 -1.49816,0.31772 -2.13239,0.99911 -1.78139,1.91381 0.29979,0.78124 0.0762,1.42043 -0.49687,1.42043 -0.57307,0 -0.89185,-0.7875 -0.7084,-1.75 z m 3.16681,1.06296 c 1.00555,-1.00554 4.6463,-1.11982 4.6463,-0.14584 0,0.45808 -1.2,0.83288 -2.66667,0.83288 -1.46666,0 -2.3575,-0.30917 -1.97963,-0.68704 z m -40.581,-2.72167 c -0.29198,-1.52738 -0.0472,-2.2501 0.66914,-1.97524 1.19292,0.45777 1.60529,4.38395 0.46045,4.38395 -0.36802,0 -0.87634,-1.08392 -1.12959,-2.40871 z m 3.65587,0.40871 c 0,-1.1 0.53644,-2 1.1921,-2 0.69976,0 0.97609,0.82599 0.66908,2 -0.28766,1.1 -0.8241,2 -1.1921,2 -0.36799,0 -0.66908,-0.9 -0.66908,-2 z m 43.28168,0 c -0.28766,-1.1 -0.16762,-2 0.26674,-2 0.43436,0 1.0251,0.9 1.31276,2 0.28766,1.1 0.16762,2 -0.26674,2 -0.43436,0 -1.0251,-0.9 -1.31276,-2 z M 96.933461,90.29809 c 0.28076,-1.07363 0.22074,-2.12363 -0.13337,-2.33334 -0.354112,-0.2097 -0.19384,-0.29709 0.35616,-0.1942 0.55,0.10289 0.87533,0.895 0.72295,1.76024 -0.1694,0.96187 0.60775,1.74293 2,2.01007 1.906519,0.36582 1.810589,0.45908 -0.58958,0.5731 -2.37942,0.11303 -2.779873,-0.19559 -2.35616,-1.81587 z m 56.722789,-0.0479 c 0,-1.1 0.43588,-2 0.96862,-2 0.53273,0 0.70959,0.675 0.39301,1.5 -0.31659,0.825 -0.0775,1.5 0.53138,1.5 0.60885,0 1.10699,-0.9 1.10699,-2 0,-1.1 0.43588,-2 0.96862,-2 0.53273,0 0.70959,0.675 0.39301,1.5 -0.33277,0.86718 -0.003,1.52965 0.78138,1.57028 1.53441,0.0795 -1.96527,1.75104 -3.89301,1.85943 -0.6875,0.0387 -1.25,-0.82971 -1.25,-1.92971 z m -60.264432,0.40223 c -0.328771,-0.32877 -0.355626,-1.22877 -0.05968,-2 0.332648,-0.86686 -0.116306,-1.40223 -1.175888,-1.40223 -1.112693,0 -1.512049,0.52622 -1.138374,1.5 0.316583,0.825 0.106732,1.5 -0.466335,1.5 -0.573067,0 -0.890281,-0.7875 -0.70492,-1.75 0.483484,-2.51053 3.928899,-2.15988 4.912851,0.5 0.774247,2.09299 0.0038,3.02371 -1.367654,1.65223 z m 67.264432,-2.40223 c 0,-1.1 0.17252,-2 0.38337,-2 0.21085,0 0.61872,0.9 0.90638,2 0.28766,1.1 0.11514,2 -0.38337,2 -0.49851,0 -0.90638,-0.9 -0.90638,-2 z m -76.5,-0.46389 c -1.65,-0.75552 -2.389355,-1.41022 -1.643011,-1.45489 0.782848,-0.0469 1.113451,-0.71587 0.781385,-1.58122 -0.68968,-1.79728 -0.76602,-1.78906 3.336185,-0.35902 2.829206,0.98626 3.036562,1.27329 1.529246,2.11683 -1.420578,0.79499 -1.489853,1.1367 -0.373782,1.84371 2.118587,1.34208 -0.280197,0.96845 -3.630023,-0.56541 z m 2.5,-1.53611 c 0,-0.55 -0.423442,-1 -0.940983,-1 -0.517541,0 -1.219098,0.45 -1.559017,1 -0.339919,0.55 0.08352,1 0.940983,1 0.857459,0 1.559017,-0.45 1.559017,-1 z m 76.72714,1.06458 c -0.27837,-1.06448 0.007,-2.13218 0.63337,-2.37268 0.65534,-0.25148 1.13949,0.57084 1.13949,1.93542 0,2.86065 -1.07011,3.12459 -1.77286,0.43726 z m 3.50533,-1.52635 c -0.12555,-1.51707 0.61298,-2.60241 2.29113,-3.36703 2.02737,-0.92373 2.4764,-0.86022 2.4764,0.35024 0,1.53846 1.18757,1.95766 2.32466,0.82057 0.36189,-0.3619 0.19004,-1.22183 -0.38189,-1.91097 -0.72047,-0.86811 -0.7178,-1.45204 0.009,-1.90103 0.57638,-0.35642 1.04823,0.0535 1.04823,0.91097 0,0.85746 0.675,1.55902 1.5,1.55902 1.75568,0 1.94336,-1.15664 0.43278,-2.66722 -0.75629,-0.75629 -0.62545,-1.23674 0.44908,-1.64907 1.03579,-0.39747 1.34008,-0.12266 0.96022,0.86722 -0.35304,0.92003 0.0732,1.44907 1.16756,1.44907 1.23101,0 1.57422,-0.57132 1.20087,-1.999 -0.28751,-1.09946 -0.002,-2.2966 0.63337,-2.66033 0.63587,-0.36373 0.82252,-0.29308 0.4148,0.15699 -0.40773,0.45008 -0.27658,1.3783 0.29144,2.06273 1.10571,1.3323 -1.49623,3.61095 -7.80012,6.8309 -2.85448,1.45804 -3.25,1.4744 -3.25,0.13439 0,-1.77582 -1.57096,-2.0289 -2.5691,-0.41388 -0.37792,0.61149 -0.14175,1.44887 0.52483,1.86084 0.91915,0.56806 0.87976,0.87651 -0.16301,1.27666 -0.8891,0.34118 -1.44044,-0.26345 -1.56025,-1.71107 z M 79.881353,84.85393 c 0.151193,-1.04294 -0.35931,-2.11684 -1.134453,-2.38645 -0.972882,-0.33838 -1.214872,0.0166 -0.781384,1.14626 0.34538,0.90005 0.159092,1.63645 -0.413975,1.63645 -1.296433,0 -0.763474,-3.2177 0.604709,-3.65088 0.55,-0.17413 1.61485,0.0725 2.366333,0.54805 1.06055,0.67115 1.110928,1.28296 0.225103,2.73374 -1.109708,1.81746 -1.133638,1.81671 -0.866333,-0.0272 z M 73.864512,83.574 c -0.991925,-0.39801 -1.021531,-0.84388 -0.127555,-1.92106 0.913197,-1.10033 0.832366,-1.40275 -0.374929,-1.40275 -0.846511,0 -1.788518,0.5625 -2.093349,1.25 -0.30483,0.6875 -0.45483,0.39668 -0.333333,-0.64626 0.121497,-1.04294 -0.413303,-2.11684 -1.188446,-2.38645 -1.028945,-0.35788 -1.21539,0.019 -0.690754,1.39626 0.576403,1.51317 0.469421,1.63911 -0.54065,0.63645 -0.904268,-0.89763 -0.953781,-1.55547 -0.175642,-2.3336 0.778139,-0.77814 2.173532,-0.50871 4.95,0.9558 2.126518,1.12167 3.255751,2.0593 2.509407,2.0836 -0.788485,0.0257 -1.115842,0.67262 -0.781385,1.5442 0.316583,0.825 0.477228,1.46447 0.356989,1.42105 -0.120238,-0.0434 -0.799897,-0.31218 -1.510353,-0.59724 z M 13.40625,79.56086 c -2.620715,-0.68486 -2.188771,-1.65151 2.787762,-6.23871 3.435571,-3.1668 5.044792,-4.02184 6.625229,-3.52023 1.399098,0.44406 1.861829,0.29745 1.403221,-0.4446 -0.376335,-0.60892 -0.207688,-1.10713 0.374771,-1.10713 0.582459,0 1.059017,0.57267 1.059017,1.2726 0,1.42073 -6.729599,5.36735 -8.487958,4.97782 -0.674002,-0.14932 -1.043175,0.95547 -0.918936,2.75 0.114216,1.64977 -0.08501,2.94738 -0.44272,2.88358 -0.357712,-0.0638 -1.437886,-0.3218 -2.400386,-0.57333 z m 2.25,-3.09978 c 0,-1.18064 -0.283493,-1.2205 -1.5,-0.21089 -0.825,0.68469 -1.5,1.33979 -1.5,1.45578 0,0.11599 0.675,0.21089 1.5,0.21089 0.825,0 1.5,-0.6551 1.5,-1.45578 z M 19.49166,72.639 c 0.365525,0.2207 1.244832,-0.2265 1.954017,-0.99377 1.528738,-1.65395 0.819819,-1.79147 -1.855168,-0.35986 -1.063843,0.56935 -1.898733,1.58185 -1.855312,2.25 0.05909,0.9092 0.206364,0.89878 0.585411,-0.0414 0.278554,-0.69092 0.805528,-1.07566 1.171052,-0.85496 z m 41.875369,3.64273 c -3.22118,-2.04282 -4.491647,-3.43901 -4.08755,-4.49208 0.322488,-0.84038 0.969534,-1.29115 1.437882,-1.00169 0.468348,0.28945 0.598049,1.18687 0.288226,1.99426 -0.309823,0.80738 -0.06517,1.46797 0.543674,1.46797 0.608844,0 1.106989,-0.45381 1.106989,-1.00847 0,-0.61544 0.740586,-0.54597 1.900221,0.17823 1.045121,0.65269 1.671976,1.7815 1.393011,2.50847 -0.278965,0.72697 -0.04657,1.32177 0.516446,1.32177 0.56301,0 1.203767,-0.54034 1.423904,-1.20075 0.248357,-0.74507 0.634435,-0.82182 1.01735,-0.20225 0.339406,0.54917 0.283345,1.53852 -0.124581,2.19856 -0.534215,0.86438 -2.049089,0.37094 -5.415572,-1.76402 z m 1.289221,-1.03154 c 0,-0.55 -0.476558,-1 -1.059017,-1 -0.582459,0 -0.780902,0.45 -0.440983,1 0.339919,0.55 0.816476,1 1.059017,1 0.242541,0 0.440983,-0.45 0.440983,-1 z m 121,1.55902 c 0,-0.85746 -0.0298,-1.89652 -0.0663,-2.30902 -0.0365,-0.4125 0.87285,-1.37357 2.02069,-2.13571 1.8478,-1.2269 2.01506,-1.19824 1.45931,0.25 -0.42707,1.11292 -0.0925,1.63571 1.0467,1.63571 1.19478,0 1.50021,-0.54875 1.06631,-1.91584 -0.33444,-1.05372 -0.23178,-2.14841 0.22813,-2.43265 0.45991,-0.28424 0.81572,0.60963 0.79068,1.98638 -0.0551,3.03157 -3.03201,5.14267 -3.93469,2.79034 -0.32819,-0.85525 -1.07173,-1.26141 -1.65233,-0.90258 -0.73554,0.45459 -0.72296,1.05323 0.0415,1.97435 0.75881,0.91431 0.77379,1.52177 0.0486,1.96999 -0.57675,0.35642 -1.0486,-0.0535 -1.0486,-0.91097 z M 47.06243,76.09834 c -0.427463,-0.69165 -0.27852,-0.88734 0.370213,-0.4864 0.596976,0.36895 1.368062,0.21348 1.713526,-0.34549 0.345463,-0.55897 -0.07344,-1.01631 -0.930902,-1.01631 -0.857459,0 -1.559017,-0.64468 -1.559017,-1.43261 0,-1.66202 -3.458464,-3.02011 -5.102855,-2.00382 -0.616413,0.38096 -1.51355,0.0725 -1.993636,-0.68546 -1.355673,-2.14034 -1.074602,-2.87811 1.096491,-2.87811 1.1,0 2.006891,0.5625 2.015313,1.25 0.01121,0.9147 0.212513,0.94011 0.750481,0.0947 1.166007,-1.83233 10.214681,-0.48524 10.313153,1.53534 0.05048,1.03572 0.260853,1.16914 0.583334,0.36995 0.277412,-0.6875 0.907238,-1.25 1.399614,-1.25 0.492375,0 0.384246,1.12148 -0.240288,2.49218 -0.928274,2.03734 -1.401683,2.27129 -2.5939,1.28183 -1.205309,-1.00031 -1.384682,-0.86881 -1.033656,0.75782 0.233601,1.08249 0.993952,1.84452 1.689669,1.69339 0.706721,-0.15352 0.961679,0.21591 0.577742,0.83713 -0.475891,0.77001 -1.007088,0.79202 -1.727526,0.0716 -0.679383,-0.67938 -1.660025,-0.70867 -2.826443,-0.0844 -1.211501,0.64838 -2.016204,0.58361 -2.501313,-0.20131 z m 4.020819,-4.36967 c 1.05985,-0.80183 1.597882,-1.78698 1.195627,-2.18924 -0.402255,-0.40225 -1.150013,-0.0694 -1.661686,0.73967 -0.814223,1.28747 -0.934136,1.28386 -0.96094,-0.029 -0.02722,-1.33333 -0.138334,-1.33333 -1,0 -2.037492,3.15279 -0.790314,3.91258 2.426999,1.47853 z M 41.65625,69.25014 c 0,-0.55 -0.476558,-1 -1.059017,-1 -0.582459,0 -0.780902,0.45 -0.440983,1 0.339919,0.55 0.816476,1 1.059017,1 0.242541,0 0.440983,-0.45 0.440983,-1 z m 5.5,0 c -0.339919,-0.55 -1.041476,-1 -1.559017,-1 -0.517541,0 -0.940983,0.45 -0.940983,1 0,0.55 0.701558,1 1.559017,1 0.857459,0 1.280902,-0.45 0.940983,-1 z m 144.82278,1.16647 c -0.0548,-1.46656 0.10818,-1.87897 0.36213,-0.91647 0.47787,1.81113 1.49843,2.23332 2.63975,1.09201 0.36189,-0.3619 0.18284,-1.23051 -0.3979,-1.93026 -0.78188,-0.9421 -0.48711,-1.57668 1.13585,-2.44526 1.73424,-0.92813 2.37073,-0.89051 3.04925,0.18026 1.39784,2.20595 1.0055,3.396 -0.45922,1.39289 -1.02216,-1.39789 -1.5358,-1.53772 -2.12811,-0.57933 -0.44566,0.7211 -0.23408,1.60116 0.49298,2.05051 0.90469,0.55913 0.42354,1.22686 -1.66069,2.30466 -2.88655,1.4927 -2.93606,1.47395 -3.03404,-1.14901 z m 40.1981,0.58353 c 0.5989,-1.63415 -1.18455,-4.41967 -2.18755,-3.41667 -0.42647,0.42648 -0.1779,1.1447 0.55239,1.59604 0.85661,0.52941 0.9606,1.04758 0.29304,1.46015 -1.05471,0.65184 -1.53957,-0.44882 -2.66265,-6.04432 -0.36498,-1.81846 -0.18967,-3.42892 0.41389,-3.80194 0.65574,-0.40527 0.79869,1.9e-4 0.38247,1.08483 -0.62566,1.63046 -0.52404,1.6335 1.73396,0.0519 3.5229,-2.46753 5.89141,-2.20965 5.23498,0.56997 -0.52464,2.22156 -0.51099,2.22472 1.07988,0.25 1.52617,-1.89441 1.554,-1.82842 0.52715,1.25 -0.59625,1.7875 -1.61931,3.25 -2.27346,3.25 -0.65415,0 -1.26521,1.00683 -1.35791,2.23739 -0.1288,1.70984 0.044,1.89351 0.73282,0.77896 0.49575,-0.80213 1.2503,-1.10949 1.67678,-0.68302 0.42647,0.42648 0.11344,1.19406 -0.69563,1.70573 -2.10654,1.33222 -3.98661,1.1747 -3.45016,-0.28906 z m 0.21148,-6.83454 c 0.41445,-1.58485 0.74789,-1.76463 1.39106,-0.75 0.64819,1.02255 0.84953,0.92542 0.86127,-0.41546 0.008,-0.9625 -0.40255,-1.75 -0.91326,-1.75 -1.20265,0 -4.07143,2.86878 -4.07143,4.07143 0,1.82063 2.19702,0.89115 2.73236,-1.15597 z M 27.051222,70.0802 c -0.486179,-0.78665 -0.177903,-0.96074 0.940983,-0.53138 0.915225,0.3512 1.664045,0.20267 1.664045,-0.33007 0,-0.53273 -0.675,-0.96861 -1.5,-0.96861 -0.825,0 -1.5,-0.44035 -1.5,-0.97856 0,-0.60381 0.927098,-0.55615 2.420857,0.12445 1.424409,0.64901 2.203591,1.66921 1.893011,2.47856 -0.645138,1.68121 -2.93275,1.80123 -3.918896,0.20561 z M 240.25267,67.35669 c -0.91887,-1.01534 -1.36614,-2.54308 -1.01354,-3.46193 0.74261,-1.93522 1.20016,-1.97546 4.08486,-0.35919 2.10391,1.17881 2.11482,1.2797 0.37053,3.4265 -1.73047,2.1298 -1.85827,2.14445 -3.44185,0.39462 z m 2.20927,-3.22664 c -1.59173,-0.98374 -3.2875,0.53149 -2.32953,2.08152 0.51852,0.83897 1.0829,0.81948 2.1602,-0.0746 1.16706,-0.96858 1.20088,-1.36939 0.16933,-2.00692 z m -41.3484,3.18919 c 0.31644,-0.512 0.11065,-1.21809 -0.45729,-1.5691 -0.56794,-0.35101 -0.77373,-1.0571 -0.45729,-1.5691 1.03211,-1.67 1.95431,-0.98113 2.1015,1.56981 0.0793,1.37461 -0.28474,2.49929 -0.80901,2.49929 -0.52428,0 -0.69434,-0.41891 -0.37791,-0.9309 z m 2.65871,-2.94303 c 0.0748,-1.69406 0.27831,-2.00498 0.57333,-0.87607 0.25152,0.9625 0.90465,1.75 1.45138,1.75 0.54674,0 0.70842,-0.9 0.35929,-2 -0.47551,-1.4982 -0.17879,-2.00155 1.18261,-2.00616 0.99957,-0.003 3.05489,-0.6517 4.56739,-1.4407 2.54811,-1.32922 2.75,-1.29206 2.75,0.50616 0,1.06739 0.49814,1.9407 1.10699,1.9407 0.60884,0 0.84797,-0.675 0.53138,-1.5 -0.31658,-0.825 -0.10673,-1.5 0.46634,-1.5 0.57307,0 0.89127,0.78233 0.70713,1.73852 -0.41687,2.16465 -3.81184,2.99154 -3.81184,0.92842 0,-0.98737 -0.66544,-1.30568 -2,-0.95669 -1.1,0.28766 -2,0.96867 -2,1.51337 0,0.5447 0.675,0.73134 1.5,0.41475 0.825,-0.31658 1.5,-0.24868 1.5,0.1509 0,0.39957 -2.025,1.45468 -4.5,2.34468 l -4.5,1.61819 0.116,-2.62607 z m 4.884,-1.12607 c 0,-0.55 -0.47656,-1 -1.05902,-1 -0.58246,0 -0.7809,0.45 -0.44098,1 0.33992,0.55 0.81648,1 1.05902,1 0.24254,0 0.44098,-0.45 0.44098,-1 z m 15.66667,-0.66667 c -0.36667,-0.36666 -0.63504,-1.37916 -0.59638,-2.25 0.0517,-1.1645 0.29762,-1.05428 0.92971,0.41667 0.7349,1.71021 0.86961,1.74644 0.92971,0.25 0.0387,-0.9625 0.47816,-1.75 0.97667,-1.75 0.49851,0 0.67103,0.9 0.38337,2 -0.53615,2.05023 -1.44448,2.51194 -2.62308,1.33333 z m -5.65136,-2.08333 c 0.0121,-1.38406 0.19784,-1.46182 0.8882,-0.37188 0.48009,0.75796 1.37319,1.0689 1.98469,0.69098 0.61149,-0.37792 1.1118,-0.21058 1.1118,0.37188 0,0.58246 -0.9,1.05902 -2,1.05902 -1.24393,0 -1.99421,-0.66156 -1.98469,-1.75 z"
       id="path3980" />
    <path
       style="fill:#4a3908"
       d="m 70.686876,81.75014 c 0,-0.55 0.436218,-1.675 0.969374,-2.5 0.533156,-0.825 0.969374,-1.05 0.969374,-0.5 0,0.55 -0.436218,1.675 -0.969374,2.5 -0.533156,0.825 -0.969374,1.05 -0.969374,0.5 z M 13.40625,79.56081 c -1.844243,-0.48195 -2.312783,-1.84482 -0.928379,-2.70043 0.451892,-0.27928 1.572488,0.36916 2.490213,1.44099 1.691389,1.9754 1.565696,2.07675 -1.561834,1.25944 z m 46.875,-4.10842 c -0.271169,-0.43876 -0.09265,-1.44558 0.396716,-2.23739 0.670915,-1.08556 0.848299,-0.88936 0.721213,0.79775 -0.182862,2.42756 -0.363554,2.66025 -1.117929,1.43964 z m -10.625,-1.64323 c 0,-2.22691 1.566019,-2.67016 1.730265,-0.48974 0.07999,1.06189 -0.276596,1.93072 -0.792414,1.93072 -0.515818,0 -0.937851,-0.64844 -0.937851,-1.44098 z m 3.70233,-0.89235 c -0.281407,-0.73334 0.07754,-1.33334 0.79767,-1.33334 0.720125,0 1.079077,0.6 0.79767,1.33334 -0.281406,0.73333 -0.640358,1.33333 -0.79767,1.33333 -0.157312,0 -0.516264,-0.6 -0.79767,-1.33333 z m 3.840375,0.40243 c -0.664972,-1.07595 1.292282,-2.56745 2.190493,-1.66924 0.330074,0.33008 0.04858,0.60014 -0.625548,0.60014 -0.674126,0 -0.947569,0.45 -0.60765,1 0.339919,0.55 0.393034,1 0.118034,1 -0.275,0 -0.758898,-0.41891 -1.075329,-0.9309 z M 29.65625,69.30916 c 0,-0.58246 -0.7875,-1.09455 -1.75,-1.13797 -0.981198,-0.0443 -1.217407,-0.29501 -0.537676,-0.57077 1.741972,-0.7067 4.855883,1.18051 3.416092,2.07035 -0.620629,0.38357 -1.128416,0.22085 -1.128416,-0.36161 z M 46.213887,68.3434 c -0.308218,-0.49871 0.340224,-0.67123 1.440983,-0.38337 2.334987,0.61061 2.630147,1.29011 0.560397,1.29011 -0.792541,0 -1.693162,-0.40803 -2.00138,-0.90674 z m 185.657183,0.43558 c 0.39315,-0.43549 0.20998,-1.7351 -0.40705,-2.88802 -1.08373,-2.02498 -1.14479,-2.03083 -1.79681,-0.17207 -0.65201,1.85874 -0.69309,1.8548 -1.20841,-0.11578 -0.34434,-1.31678 0.11473,-2.44473 1.295,-3.18182 1.46272,-0.91348 1.7222,-0.86501 1.29728,0.24233 -0.70058,1.82567 1.35559,3.03855 2.93251,1.72981 1.75392,-1.45562 3.81511,0.0173 2.63519,1.8831 -0.62997,0.99616 -0.93687,1.06861 -0.94722,0.22361 -0.008,-0.6875 -0.46531,-1.25 -1.01531,-1.25 -0.55,0 -1,0.64844 -1,1.44098 0,0.79254 -0.5625,1.76469 -1.25,2.16033 -0.6875,0.39564 -0.92833,0.36303 -0.53518,-0.0725 z m 10.67485,-2.27884 c 0.64939,-1.2375 1.61486,-2.25 2.14551,-2.25 1.42064,0 1.20285,0.47868 -1.18069,2.59501 -2.13401,1.89478 -2.13918,1.89293 -0.96482,-0.34501 z"
       id="path3978" />
    <path
       style="fill:#362d07"
       d="m 46.927083,68.64597 c 0.332292,-0.33229 1.194792,-0.36782 1.916667,-0.0789 0.797733,0.31923 0.560776,0.55619 -0.604167,0.60417 -1.054166,0.0434 -1.644791,-0.19293 -1.3125,-0.52522 z M 229.65625,63.30916 c 0,-0.51754 0.44485,-1.21592 0.98855,-1.55194 0.56686,-0.35034 0.7345,0.0511 0.39301,0.94098 -0.66479,1.73242 -1.38156,2.04939 -1.38156,0.61096 z"
       id="path3976" />
  </g>
</svg>
